<svg width="556" height="168" viewBox="0 0 556 168" fill="none" xmlns="http://www.w3.org/2000/svg">
<path d="M230.18 63.7869C230.18 59.459 232.804 56.4426 236.347 56.4426C238.84 56.4426 241.333 57.3607 242.645 58.6721L247.107 45.4262C243.039 41.6229 236.347 39 230.574 39C217.845 39 208.923 48.0492 208.923 60.7705V65.623H200V83.3279H208.923V133.426H230.18V83.3279H244.22V65.623H230.18V63.7869Z" fill="#0D0543"/>
<path d="M296.139 65.623V105.098L296.008 104.705C296.008 111.393 290.89 116.508 284.067 116.508C277.244 116.508 272.52 111.262 272.52 103.787V65.623H251.263V108.771C251.263 124.115 261.629 135 276.194 135C284.723 135 291.94 131.459 296.139 125.689V133.426H318.315V65.623H296.139Z" fill="#0D0543"/>
<path d="M361.628 117.033C354.411 117.033 349.032 112.443 346.932 105.623H395.351C395.351 79.7869 382.754 64.0492 361.235 64.0492C340.765 64.0492 325.806 78.7377 325.806 99.3279C325.806 120.18 341.29 135 362.285 135C372.388 135 384.066 130.672 390.102 124.508L376.981 111.262C372.913 114.803 366.877 117.033 361.628 117.033ZM361.628 81.8853C368.32 81.8853 372.913 85.9508 374.75 92.1148H347.195C349.556 85.8197 354.936 81.8853 361.628 81.8853Z" fill="#0D0543"/>
<path d="M403.197 133.426H425.504V41.7541H403.197V133.426Z" fill="#0D0543"/>
<path d="M469.211 117.033C461.994 117.033 456.614 112.443 454.515 105.623H502.934C502.934 79.7869 490.337 64.0492 468.817 64.0492C448.347 64.0492 433.389 78.7377 433.389 99.3279C433.389 120.18 448.872 135 469.867 135C479.971 135 491.649 130.672 497.685 124.508L484.563 111.262C480.495 114.803 474.46 117.033 469.211 117.033ZM469.211 81.8853C475.903 81.8853 480.496 85.9508 482.333 92.1148H454.777C457.139 85.8197 462.519 81.8853 469.211 81.8853Z" fill="#0D0543"/>
<path d="M532.693 78.2131V65.623H510.518V133.426H532.693V102.607L532.824 102.869C532.824 90.4098 541.222 82.541 555 82.541V64.0492C545.159 64.0492 537.155 69.4262 532.693 78.2131Z" fill="#0D0543"/>
<path d="M175 84C175 92.7767 160.916 99.2106 158.356 107.129C155.702 115.337 163.24 128.841 158.291 135.673C153.292 142.575 138.145 139.52 131.277 144.541C124.476 149.513 122.714 164.956 114.545 167.622C106.662 170.192 96.2366 158.822 87.5 158.822C78.7634 158.822 68.3381 170.192 60.4554 167.62C52.2856 164.956 50.5241 149.513 43.7232 144.539C36.8553 139.516 21.7046 142.573 16.7092 135.672C11.7599 128.839 19.2979 115.335 16.6441 107.128C14.0842 99.2106 0 92.7767 0 84C0 75.2233 14.0842 68.7894 16.6441 60.8706C19.2979 52.6632 11.7599 39.1587 16.7092 32.3266C21.7084 25.4253 36.8553 28.4797 43.7232 23.4595C50.5241 18.4874 52.2856 3.04403 60.4554 0.37813C68.3381 -2.1916 78.7634 9.1779 87.5 9.1779C96.2366 9.1779 106.662 -2.19159 114.545 0.380056C122.714 3.04403 124.476 18.4874 131.277 23.4614C138.145 28.4835 153.295 25.4272 158.291 32.3285C163.24 39.1606 155.702 52.6651 158.356 60.8725C160.916 68.7894 175 75.2233 175 84Z" fill="url(#paint0_linear)"/>
<path d="M86.0507 43.7262L62.3754 88.7108C62.1158 89.2046 61.9869 89.7579 62.0011 90.3169C62.0152 90.8759 62.1721 91.4217 62.4564 91.9015C62.7408 92.3812 63.1429 92.7787 63.6239 93.0553C64.105 93.3318 64.6485 93.4782 65.202 93.4802H77.6469C78.0688 93.4799 78.4866 93.5637 78.8764 93.7266C79.2663 93.8896 79.6205 94.1286 79.9189 94.4299C80.2174 94.7312 80.4541 95.089 80.6156 95.4828C80.7771 95.8766 80.8602 96.2987 80.8602 96.7249V123.749C80.8602 127.091 85.2555 128.252 86.873 125.336L111.591 80.7824C111.864 80.2887 112.005 79.7313 112 79.1656C111.994 78.5999 111.843 78.0455 111.56 77.5573C111.277 77.069 110.873 76.664 110.387 76.3822C109.902 76.1004 109.352 75.9518 108.792 75.9509L95.3003 75.9363C94.4493 75.9348 93.6337 75.5924 93.0323 74.9841C92.4309 74.3758 92.0929 73.5513 92.0924 72.6915V45.2509C92.0978 41.8692 87.6212 40.7425 86.0507 43.7262Z" fill="white"/>
<path d="M441 8.57142C441 3.83755 445.083 0 450.12 0H545.88C550.917 0 555 3.83756 555 8.57143V36.4286C555 41.1624 550.917 45 545.88 45H450.12C445.083 45 441 41.1624 441 36.4286V8.57142Z" fill="#DBFFFD"/>
<path fill-rule="evenodd" clip-rule="evenodd" d="M546.88 2.43507H451.12C447.514 2.43507 444.591 5.18241 444.591 8.57142V36.4286C444.591 39.8176 447.514 42.5649 451.12 42.5649H546.88C550.486 42.5649 553.409 39.8176 553.409 36.4286V8.57143C553.409 5.18241 550.486 2.43507 546.88 2.43507ZM451.12 0C446.083 0 442 3.83755 442 8.57142V36.4286C442 41.1624 446.083 45 451.12 45H546.88C551.917 45 556 41.1624 556 36.4286V8.57143C556 3.83756 551.917 0 546.88 0H451.12Z" fill="url(#paint1_linear)"/>
<path d="M468 29H475.271C477.929 29 479.825 27.4512 479.825 25.2096C479.825 23.6812 478.906 22.3566 477.362 21.6434C478.535 21.032 479.219 19.9112 479.219 18.5255C479.219 16.4876 477.499 15 475.017 15H468V29ZM471.323 20.5429V17.9549H474.196C475.115 17.9549 475.779 18.4847 475.779 19.2387C475.779 19.9927 475.115 20.5429 474.196 20.5429H471.323ZM471.323 26.0451V23.2329H474.704C475.681 23.2329 476.385 23.8239 476.385 24.639C476.385 25.4541 475.681 26.0451 474.704 26.0451H471.323Z" fill="#0D0543"/>
<path d="M496.206 18.1179V15H485.631V29H496.206V25.8821H488.974V23.4163H495.541V20.2984H488.974V18.1179H496.206Z" fill="#0D0543"/>
<path d="M505.538 29H508.88V18.1179H512.946V15H501.453V18.1179H505.538V29Z" fill="#0D0543"/>
<path d="M527.247 29H531L525.684 15H521.931L516.615 29H520.367L521.149 26.9622H526.465L527.247 29ZM522.185 24.2314L523.807 19.9316L525.43 24.2314H522.185Z" fill="#0D0543"/>
<defs>
<linearGradient id="paint0_linear" x1="87.5" y1="0" x2="87.5" y2="168" gradientUnits="userSpaceOnUse">
<stop stop-color="#00FBFF"/>
<stop offset="0.9999" stop-color="#10DCE8"/>
<stop offset="1" stop-color="#09C9E3"/>
</linearGradient>
<linearGradient id="paint1_linear" x1="499" y1="0" x2="499" y2="45" gradientUnits="userSpaceOnUse">
<stop stop-color="#00FBFF"/>
<stop offset="0.9999" stop-color="#10DCE8"/>
<stop offset="1" stop-color="#09C9E3"/>
</linearGradient>
</defs>
</svg>
